<?xml version="1.0" standalone="no"?>
<!DOCTYPE svg PUBLIC "-//W3C//DTD SVG 1.1//EN" "http://www.w3.org/Graphics/SVG/1.1/DTD/svg11.dtd">
<svg version="1.1" width="1200" height="518" onload="init(evt)" viewBox="0 0 1200 518" xmlns="http://www.w3.org/2000/svg" xmlns:xlink="http://www.w3.org/1999/xlink">
<!-- Flame graph stack visualization. See https://github.com/brendangregg/FlameGraph for latest version, and http://www.brendangregg.com/flamegraphs.html for examples. -->
<!-- NOTES:  -->
<defs>
	<linearGradient id="background" y1="0" y2="1" x1="0" x2="0" >
		<stop stop-color="#eeeeee" offset="5%" />
		<stop stop-color="#eeeeb0" offset="95%" />
	</linearGradient>
</defs>
<style type="text/css">
	text { font-family:Verdana; font-size:12px; fill:rgb(0,0,0); }
	#search, #ignorecase { opacity:0.1; cursor:pointer; }
	#search:hover, #search.show, #ignorecase:hover, #ignorecase.show { opacity:1; }
	#subtitle { text-anchor:middle; font-color:rgb(160,160,160); }
	#title { text-anchor:middle; font-size:17px}
	#unzoom { cursor:pointer; }
	#frames > *:hover { stroke:black; stroke-width:0.5; cursor:pointer; }
	.hide { display:none; }
	.parent { opacity:0.5; }
</style>
<script type="text/ecmascript">
<![CDATA[
	"use strict";
	var details, searchbtn, unzoombtn, matchedtxt, svg, searching, currentSearchTerm, ignorecase, ignorecaseBtn;
	function init(evt) {
		details = document.getElementById("details").firstChild;
		searchbtn = document.getElementById("search");
		ignorecaseBtn = document.getElementById("ignorecase");
		unzoombtn = document.getElementById("unzoom");
		matchedtxt = document.getElementById("matched");
		svg = document.getElementsByTagName("svg")[0];
		searching = 0;
		currentSearchTerm = null;

		// use GET parameters to restore a flamegraphs state.
		var params = get_params();
		if (params.x && params.y)
			zoom(find_group(document.querySelector('[x="' + params.x + '"][y="' + params.y + '"]')));
                if (params.s) search(params.s);
	}

	// event listeners
	window.addEventListener("click", function(e) {
		var target = find_group(e.target);
		if (target) {
			if (target.nodeName == "a") {
				if (e.ctrlKey === false) return;
				e.preventDefault();
			}
			if (target.classList.contains("parent")) unzoom(true);
			zoom(target);
			if (!document.querySelector('.parent')) {
				// we have basically done a clearzoom so clear the url
				var params = get_params();
				if (params.x) delete params.x;
				if (params.y) delete params.y;
				history.replaceState(null, null, parse_params(params));
				unzoombtn.classList.add("hide");
				return;
			}

			// set parameters for zoom state
			var el = target.querySelector("rect");
			if (el && el.attributes && el.attributes.y && el.attributes._orig_x) {
				var params = get_params()
				params.x = el.attributes._orig_x.value;
				params.y = el.attributes.y.value;
				history.replaceState(null, null, parse_params(params));
			}
		}
		else if (e.target.id == "unzoom") clearzoom();
		else if (e.target.id == "search") search_prompt();
		else if (e.target.id == "ignorecase") toggle_ignorecase();
	}, false)

	// mouse-over for info
	// show
	window.addEventListener("mouseover", function(e) {
		var target = find_group(e.target);
		if (target) details.nodeValue = "Function: " + g_to_text(target);
	}, false)

	// clear
	window.addEventListener("mouseout", function(e) {
		var target = find_group(e.target);
		if (target) details.nodeValue = ' ';
	}, false)

	// ctrl-F for search
	// ctrl-I to toggle case-sensitive search
	window.addEventListener("keydown",function (e) {
		if (e.keyCode === 114 || (e.ctrlKey && e.keyCode === 70)) {
			e.preventDefault();
			search_prompt();
		}
		else if (e.ctrlKey && e.keyCode === 73) {
			e.preventDefault();
			toggle_ignorecase();
		}
	}, false)

	// functions
	function get_params() {
		var params = {};
		var paramsarr = window.location.search.substr(1).split('&');
		for (var i = 0; i < paramsarr.length; ++i) {
			var tmp = paramsarr[i].split("=");
			if (!tmp[0] || !tmp[1]) continue;
			params[tmp[0]]  = decodeURIComponent(tmp[1]);
		}
		return params;
	}
	function parse_params(params) {
		var uri = "?";
		for (var key in params) {
			uri += key + '=' + encodeURIComponent(params[key]) + '&';
		}
		if (uri.slice(-1) == "&")
			uri = uri.substring(0, uri.length - 1);
		if (uri == '?')
			uri = window.location.href.split('?')[0];
		return uri;
	}
	function find_child(node, selector) {
		var children = node.querySelectorAll(selector);
		if (children.length) return children[0];
	}
	function find_group(node) {
		var parent = node.parentElement;
		if (!parent) return;
		if (parent.id == "frames") return node;
		return find_group(parent);
	}
	function orig_save(e, attr, val) {
		if (e.attributes["_orig_" + attr] != undefined) return;
		if (e.attributes[attr] == undefined) return;
		if (val == undefined) val = e.attributes[attr].value;
		e.setAttribute("_orig_" + attr, val);
	}
	function orig_load(e, attr) {
		if (e.attributes["_orig_"+attr] == undefined) return;
		e.attributes[attr].value = e.attributes["_orig_" + attr].value;
		e.removeAttribute("_orig_"+attr);
	}
	function g_to_text(e) {
		var text = find_child(e, "title").firstChild.nodeValue;
		return (text)
	}
	function g_to_func(e) {
		var func = g_to_text(e);
		// if there's any manipulation we want to do to the function
		// name before it's searched, do it here before returning.
		return (func);
	}
	function update_text(e) {
		var r = find_child(e, "rect");
		var t = find_child(e, "text");
		var w = parseFloat(r.attributes.width.value) -3;
		var txt = find_child(e, "title").textContent.replace(/\([^(]*\)$/,"");
		t.attributes.x.value = parseFloat(r.attributes.x.value) + 3;

		// Smaller than this size won't fit anything
		if (w < 2 * 12 * 0.59) {
			t.textContent = "";
			return;
		}

		t.textContent = txt;
		var sl = t.getSubStringLength(0, txt.length);
		// check if only whitespace or if we can fit the entire string into width w
		if (/^ *$/.test(txt) || sl < w)
			return;

		// this isn't perfect, but gives a good starting point
		// and avoids calling getSubStringLength too often
		var start = Math.floor((w/sl) * txt.length);
		for (var x = start; x > 0; x = x-2) {
			if (t.getSubStringLength(0, x + 2) <= w) {
				t.textContent = txt.substring(0, x) + "..";
				return;
			}
		}
		t.textContent = "";
	}

	// zoom
	function zoom_reset(e) {
		if (e.attributes != undefined) {
			orig_load(e, "x");
			orig_load(e, "width");
		}
		if (e.childNodes == undefined) return;
		for (var i = 0, c = e.childNodes; i < c.length; i++) {
			zoom_reset(c[i]);
		}
	}
	function zoom_child(e, x, ratio) {
		if (e.attributes != undefined) {
			if (e.attributes.x != undefined) {
				orig_save(e, "x");
				e.attributes.x.value = (parseFloat(e.attributes.x.value) - x - 10) * ratio + 10;
				if (e.tagName == "text")
					e.attributes.x.value = find_child(e.parentNode, "rect[x]").attributes.x.value + 3;
			}
			if (e.attributes.width != undefined) {
				orig_save(e, "width");
				e.attributes.width.value = parseFloat(e.attributes.width.value) * ratio;
			}
		}

		if (e.childNodes == undefined) return;
		for (var i = 0, c = e.childNodes; i < c.length; i++) {
			zoom_child(c[i], x - 10, ratio);
		}
	}
	function zoom_parent(e) {
		if (e.attributes) {
			if (e.attributes.x != undefined) {
				orig_save(e, "x");
				e.attributes.x.value = 10;
			}
			if (e.attributes.width != undefined) {
				orig_save(e, "width");
				e.attributes.width.value = parseInt(svg.width.baseVal.value) - (10 * 2);
			}
		}
		if (e.childNodes == undefined) return;
		for (var i = 0, c = e.childNodes; i < c.length; i++) {
			zoom_parent(c[i]);
		}
	}
	function zoom(node) {
		var attr = find_child(node, "rect").attributes;
		var width = parseFloat(attr.width.value);
		var xmin = parseFloat(attr.x.value);
		var xmax = parseFloat(xmin + width);
		var ymin = parseFloat(attr.y.value);
		var ratio = (svg.width.baseVal.value - 2 * 10) / width;

		// XXX: Workaround for JavaScript float issues (fix me)
		var fudge = 0.0001;

		unzoombtn.classList.remove("hide");

		var el = document.getElementById("frames").children;
		for (var i = 0; i < el.length; i++) {
			var e = el[i];
			var a = find_child(e, "rect").attributes;
			var ex = parseFloat(a.x.value);
			var ew = parseFloat(a.width.value);
			var upstack;
			// Is it an ancestor
			if (0 == 0) {
				upstack = parseFloat(a.y.value) > ymin;
			} else {
				upstack = parseFloat(a.y.value) < ymin;
			}
			if (upstack) {
				// Direct ancestor
				if (ex <= xmin && (ex+ew+fudge) >= xmax) {
					e.classList.add("parent");
					zoom_parent(e);
					update_text(e);
				}
				// not in current path
				else
					e.classList.add("hide");
			}
			// Children maybe
			else {
				// no common path
				if (ex < xmin || ex + fudge >= xmax) {
					e.classList.add("hide");
				}
				else {
					zoom_child(e, xmin, ratio);
					update_text(e);
				}
			}
		}
		search();
	}
	function unzoom(dont_update_text) {
		unzoombtn.classList.add("hide");
		var el = document.getElementById("frames").children;
		for(var i = 0; i < el.length; i++) {
			el[i].classList.remove("parent");
			el[i].classList.remove("hide");
			zoom_reset(el[i]);
			if(!dont_update_text) update_text(el[i]);
		}
		search();
	}
	function clearzoom() {
		unzoom();

		// remove zoom state
		var params = get_params();
		if (params.x) delete params.x;
		if (params.y) delete params.y;
		history.replaceState(null, null, parse_params(params));
	}

	// search
	function toggle_ignorecase() {
		ignorecase = !ignorecase;
		if (ignorecase) {
			ignorecaseBtn.classList.add("show");
		} else {
			ignorecaseBtn.classList.remove("show");
		}
		reset_search();
		search();
	}
	function reset_search() {
		var el = document.querySelectorAll("#frames rect");
		for (var i = 0; i < el.length; i++) {
			orig_load(el[i], "fill")
		}
		var params = get_params();
		delete params.s;
		history.replaceState(null, null, parse_params(params));
	}
	function search_prompt() {
		if (!searching) {
			var term = prompt("Enter a search term (regexp " +
			    "allowed, eg: ^ext4_)"
			    + (ignorecase ? ", ignoring case" : "")
			    + "\nPress Ctrl-i to toggle case sensitivity", "");
			if (term != null) search(term);
		} else {
			reset_search();
			searching = 0;
			currentSearchTerm = null;
			searchbtn.classList.remove("show");
			searchbtn.firstChild.nodeValue = "Search"
			matchedtxt.classList.add("hide");
			matchedtxt.firstChild.nodeValue = ""
		}
	}
	function search(term) {
		if (term) currentSearchTerm = term;
		if (currentSearchTerm === null) return;

		var re = new RegExp(currentSearchTerm, ignorecase ? 'i' : '');
		var el = document.getElementById("frames").children;
		var matches = new Object();
		var maxwidth = 0;
		for (var i = 0; i < el.length; i++) {
			var e = el[i];
			var func = g_to_func(e);
			var rect = find_child(e, "rect");
			if (func == null || rect == null)
				continue;

			// Save max width. Only works as we have a root frame
			var w = parseFloat(rect.attributes.width.value);
			if (w > maxwidth)
				maxwidth = w;

			if (func.match(re)) {
				// highlight
				var x = parseFloat(rect.attributes.x.value);
				orig_save(rect, "fill");
				rect.attributes.fill.value = "rgb(230,0,230)";

				// remember matches
				if (matches[x] == undefined) {
					matches[x] = w;
				} else {
					if (w > matches[x]) {
						// overwrite with parent
						matches[x] = w;
					}
				}
				searching = 1;
			}
		}
		if (!searching)
			return;
		var params = get_params();
		params.s = currentSearchTerm;
		history.replaceState(null, null, parse_params(params));

		searchbtn.classList.add("show");
		searchbtn.firstChild.nodeValue = "Reset Search";

		// calculate percent matched, excluding vertical overlap
		var count = 0;
		var lastx = -1;
		var lastw = 0;
		var keys = Array();
		for (k in matches) {
			if (matches.hasOwnProperty(k))
				keys.push(k);
		}
		// sort the matched frames by their x location
		// ascending, then width descending
		keys.sort(function(a, b){
			return a - b;
		});
		// Step through frames saving only the biggest bottom-up frames
		// thanks to the sort order. This relies on the tree property
		// where children are always smaller than their parents.
		var fudge = 0.0001;	// JavaScript floating point
		for (var k in keys) {
			var x = parseFloat(keys[k]);
			var w = matches[keys[k]];
			if (x >= lastx + lastw - fudge) {
				count += w;
				lastx = x;
				lastw = w;
			}
		}
		// display matched percent
		matchedtxt.classList.remove("hide");
		var pct = 100 * count / maxwidth;
		if (pct != 100) pct = pct.toFixed(1)
		matchedtxt.firstChild.nodeValue = "Matched: " + pct + "%";
	}
]]>
</script>
<rect x="0.0" y="0" width="1200.0" height="518.0" fill="url(#background)"  />
<text id="title" x="600.00" y="24" >Flame Graph</text>
<text id="details" x="10.00" y="501" > </text>
<text id="unzoom" x="10.00" y="24" class="hide">Reset Zoom</text>
<text id="search" x="1090.00" y="24" >Search</text>
<text id="ignorecase" x="1174.00" y="24" >ic</text>
<text id="matched" x="1090.00" y="501" > </text>
<g id="frames">
<g >
<title>APHash (110,081,173,271 samples, 18.15%)</title><rect x="404.1" y="213" width="214.3" height="15.0" fill="rgb(220,70,16)" rx="2" ry="2" />
<text  x="407.14" y="223.5" >APHash</text>
</g>
<g >
<title>int const&amp; std::min&lt;int&gt; (3,153,217,059 samples, 0.52%)</title><rect x="784.8" y="293" width="6.1" height="15.0" fill="rgb(250,207,49)" rx="2" ry="2" />
<text  x="787.78" y="303.5" ></text>
</g>
<g >
<title>HashTable&lt;WeatherStation&gt;::try_emplace (338,179,088,561 samples, 55.77%)</title><rect x="83.1" y="293" width="658.1" height="15.0" fill="rgb(221,74,17)" rx="2" ry="2" />
<text  x="86.14" y="303.5" >HashTable&lt;WeatherStation&gt;::try_emplace</text>
</g>
<g >
<title>std::thread::_Invoker&lt;std::tuple&lt;main::{lambda (606,264,933,912 samples, 99.98%)</title><rect x="10.2" y="373" width="1179.8" height="15.0" fill="rgb(249,205,49)" rx="2" ry="2" />
<text  x="13.24" y="383.5" >std::thread::_Invoker&lt;std::tuple&lt;main::{lambda</text>
</g>
<g >
<title>std::_Function_base::_Base_manager&lt;unsigned long  (17,006,492,791 samples, 2.80%)</title><rect x="293.9" y="245" width="33.1" height="15.0" fill="rgb(229,111,26)" rx="2" ry="2" />
<text  x="296.94" y="255.5" >st..</text>
</g>
<g >
<title>asm_sysvec_apic_timer_interrupt (484,669,592 samples, 0.08%)</title><rect x="1152.0" y="277" width="1.0" height="15.0" fill="rgb(232,127,30)" rx="2" ry="2" />
<text  x="1155.04" y="287.5" ></text>
</g>
<g >
<title>update_curr (54,078,691 samples, 0.01%)</title><rect x="202.8" y="133" width="0.1" height="15.0" fill="rgb(227,105,25)" rx="2" ry="2" />
<text  x="205.79" y="143.5" ></text>
</g>
<g >
<title>char const*&amp;&amp; std::forward&lt;char const*&gt; (4,264,873,762 samples, 0.70%)</title><rect x="285.6" y="245" width="8.3" height="15.0" fill="rgb(226,98,23)" rx="2" ry="2" />
<text  x="288.64" y="255.5" ></text>
</g>
<g >
<title>std::enable_if&lt;is_invocable_r_v&lt;unsigned long, unsigned long  (161,596,438,471 samples, 26.65%)</title><rect x="327.0" y="245" width="314.5" height="15.0" fill="rgb(232,125,29)" rx="2" ry="2" />
<text  x="330.04" y="255.5" >std::enable_if&lt;is_invocable_r_v&lt;unsigned l..</text>
</g>
<g >
<title>sched_tick (164,734,751 samples, 0.03%)</title><rect x="617.9" y="85" width="0.3" height="15.0" fill="rgb(238,155,37)" rx="2" ry="2" />
<text  x="620.90" y="95.5" ></text>
</g>
<g >
<title>task_tick_fair (92,634,471 samples, 0.02%)</title><rect x="618.0" y="69" width="0.2" height="15.0" fill="rgb(217,57,13)" rx="2" ry="2" />
<text  x="621.04" y="79.5" ></text>
</g>
<g >
<title>entry_SYSCALL_64_after_hwframe (67,470,306 samples, 0.01%)</title><rect x="10.0" y="373" width="0.1" height="15.0" fill="rgb(218,63,15)" rx="2" ry="2" />
<text  x="13.00" y="383.5" ></text>
</g>
<g >
<title>__sysvec_apic_timer_interrupt (323,437,521 samples, 0.05%)</title><rect x="202.4" y="245" width="0.7" height="15.0" fill="rgb(242,173,41)" rx="2" ry="2" />
<text  x="205.44" y="255.5" ></text>
</g>
<g >
<title>update_process_times (54,083,283 samples, 0.01%)</title><rect x="618.4" y="117" width="0.1" height="15.0" fill="rgb(250,209,50)" rx="2" ry="2" />
<text  x="621.39" y="127.5" ></text>
</g>
<g >
<title>__sysvec_apic_timer_interrupt (254,859,588 samples, 0.04%)</title><rect x="617.8" y="165" width="0.5" height="15.0" fill="rgb(242,173,41)" rx="2" ry="2" />
<text  x="620.83" y="175.5" ></text>
</g>
<g >
<title>std::vector&lt;std::pair&lt;char const*, WeatherStation&gt;, std::allocator&lt;std::pair&lt;char const*, WeatherStation&gt; &gt; &gt;::operator[] (9,537,691,377 samples, 1.57%)</title><rect x="1157.3" y="293" width="18.6" height="15.0" fill="rgb(222,80,19)" rx="2" ry="2" />
<text  x="1160.33" y="303.5" ></text>
</g>
<g >
<title>int const&amp; std::max&lt;int&gt; (3,096,382,493 samples, 0.51%)</title><rect x="14.0" y="309" width="6.0" height="15.0" fill="rgb(237,148,35)" rx="2" ry="2" />
<text  x="16.99" y="319.5" ></text>
</g>
<g >
<title>tick_nohz_handler (304,409,961 samples, 0.05%)</title><rect x="1152.2" y="197" width="0.6" height="15.0" fill="rgb(248,200,48)" rx="2" ry="2" />
<text  x="1155.21" y="207.5" ></text>
</g>
<g >
<title>tick_nohz_handler (182,755,633 samples, 0.03%)</title><rect x="617.9" y="117" width="0.3" height="15.0" fill="rgb(248,200,48)" rx="2" ry="2" />
<text  x="620.86" y="127.5" ></text>
</g>
<g >
<title>unsigned long  (3,108,276,838 samples, 0.51%)</title><rect x="624.1" y="213" width="6.0" height="15.0" fill="rgb(247,195,46)" rx="2" ry="2" />
<text  x="627.08" y="223.5" ></text>
</g>
<g >
<title>__irqentry_text_end (54,073,653 samples, 0.01%)</title><rect x="1151.5" y="277" width="0.1" height="15.0" fill="rgb(248,199,47)" rx="2" ry="2" />
<text  x="1154.48" y="287.5" ></text>
</g>
<g >
<title>unsigned long  (11,263,489,366 samples, 1.86%)</title><rect x="305.1" y="229" width="21.9" height="15.0" fill="rgb(247,195,46)" rx="2" ry="2" />
<text  x="308.12" y="239.5" >u..</text>
</g>
<g >
<title>char const*&amp;&amp; std::forward&lt;char const*&gt; (2,681,332,263 samples, 0.44%)</title><rect x="203.1" y="277" width="5.2" height="15.0" fill="rgb(226,98,23)" rx="2" ry="2" />
<text  x="206.07" y="287.5" ></text>
</g>
<g >
<title>unsigned long&amp;&amp; std::forward&lt;unsigned long&gt; (2,322,117,990 samples, 0.38%)</title><rect x="736.7" y="277" width="4.5" height="15.0" fill="rgb(231,121,29)" rx="2" ry="2" />
<text  x="739.70" y="287.5" ></text>
</g>
<g >
<title>asm_sysvec_apic_timer_interrupt (272,883,071 samples, 0.05%)</title><rect x="617.8" y="197" width="0.6" height="15.0" fill="rgb(232,127,30)" rx="2" ry="2" />
<text  x="620.83" y="207.5" ></text>
</g>
<g >
<title>sysvec_apic_timer_interrupt (54,083,283 samples, 0.01%)</title><rect x="618.4" y="197" width="0.1" height="15.0" fill="rgb(220,69,16)" rx="2" ry="2" />
<text  x="621.39" y="207.5" ></text>
</g>
<g >
<title>unsigned long&amp;&amp; std::forward&lt;unsigned long&gt; (3,270,523,086 samples, 0.54%)</title><rect x="635.1" y="229" width="6.4" height="15.0" fill="rgb(231,121,29)" rx="2" ry="2" />
<text  x="638.13" y="239.5" ></text>
</g>
<g >
<title>unmap_single_vma (67,470,306 samples, 0.01%)</title><rect x="10.0" y="213" width="0.1" height="15.0" fill="rgb(225,93,22)" rx="2" ry="2" />
<text  x="13.00" y="223.5" ></text>
</g>
<g >
<title>sysvec_apic_timer_interrupt (53,079,625 samples, 0.01%)</title><rect x="262.1" y="229" width="0.1" height="15.0" fill="rgb(220,69,16)" rx="2" ry="2" />
<text  x="265.05" y="239.5" ></text>
</g>
<g >
<title>char const*&amp;&amp; std::forward&lt;char const*&gt; (3,439,233,116 samples, 0.57%)</title><rect x="242.6" y="261" width="6.7" height="15.0" fill="rgb(226,98,23)" rx="2" ry="2" />
<text  x="245.63" y="271.5" ></text>
</g>
<g >
<title>do_user_addr_fault (234,354,606 samples, 0.04%)</title><rect x="1151.6" y="245" width="0.4" height="15.0" fill="rgb(228,108,25)" rx="2" ry="2" />
<text  x="1154.58" y="255.5" ></text>
</g>
<g >
<title>main (606,387,606,579 samples, 100.00%)</title><rect x="10.0" y="453" width="1180.0" height="15.0" fill="rgb(243,179,42)" rx="2" ry="2" />
<text  x="13.00" y="463.5" >main</text>
</g>
<g >
<title>asm_sysvec_apic_timer_interrupt (54,074,833 samples, 0.01%)</title><rect x="736.6" y="261" width="0.1" height="15.0" fill="rgb(232,127,30)" rx="2" ry="2" />
<text  x="739.60" y="271.5" ></text>
</g>
<g >
<title>unsigned long std::__invoke_impl&lt;unsigned long, unsigned long  (3,889,940,767 samples, 0.64%)</title><rect x="648.5" y="245" width="7.6" height="15.0" fill="rgb(249,204,48)" rx="2" ry="2" />
<text  x="651.52" y="255.5" ></text>
</g>
<g >
<title>__hrtimer_run_queues (323,437,521 samples, 0.05%)</title><rect x="202.4" y="213" width="0.7" height="15.0" fill="rgb(237,150,35)" rx="2" ry="2" />
<text  x="205.44" y="223.5" ></text>
</g>
<g >
<title>tick_nohz_handler (323,437,521 samples, 0.05%)</title><rect x="202.4" y="197" width="0.7" height="15.0" fill="rgb(248,200,48)" rx="2" ry="2" />
<text  x="205.44" y="207.5" ></text>
</g>
<g >
<title>asm_sysvec_apic_timer_interrupt (89,117,099 samples, 0.01%)</title><rect x="777.3" y="293" width="0.2" height="15.0" fill="rgb(232,127,30)" rx="2" ry="2" />
<text  x="780.34" y="303.5" ></text>
</g>
<g >
<title>hrtimer_interrupt (323,437,521 samples, 0.05%)</title><rect x="202.4" y="229" width="0.7" height="15.0" fill="rgb(228,109,26)" rx="2" ry="2" />
<text  x="205.44" y="239.5" ></text>
</g>
<g >
<title>zap_pud_range.isra.0 (67,470,306 samples, 0.01%)</title><rect x="10.0" y="181" width="0.1" height="15.0" fill="rgb(242,172,41)" rx="2" ry="2" />
<text  x="13.00" y="191.5" ></text>
</g>
<g >
<title>__hrtimer_run_queues (90,115,269 samples, 0.01%)</title><rect x="777.1" y="213" width="0.2" height="15.0" fill="rgb(237,150,35)" rx="2" ry="2" />
<text  x="780.09" y="223.5" ></text>
</g>
<g >
<title>x64_sys_call (67,470,306 samples, 0.01%)</title><rect x="10.0" y="341" width="0.1" height="15.0" fill="rgb(247,194,46)" rx="2" ry="2" />
<text  x="13.00" y="351.5" ></text>
</g>
<g >
<title>update_load_avg (72,110,540 samples, 0.01%)</title><rect x="618.1" y="53" width="0.1" height="15.0" fill="rgb(240,165,39)" rx="2" ry="2" />
<text  x="621.08" y="63.5" ></text>
</g>
<g >
<title>asm_sysvec_apic_timer_interrupt (359,485,924 samples, 0.06%)</title><rect x="202.4" y="277" width="0.7" height="15.0" fill="rgb(232,127,30)" rx="2" ry="2" />
<text  x="205.37" y="287.5" ></text>
</g>
<g >
<title>start_thread (606,264,933,912 samples, 99.98%)</title><rect x="10.2" y="421" width="1179.8" height="15.0" fill="rgb(212,34,8)" rx="2" ry="2" />
<text  x="13.24" y="431.5" >start_thread</text>
</g>
<g >
<title>std::function&lt;unsigned long  (2,177,989,188 samples, 0.36%)</title><rect x="1153.1" y="293" width="4.2" height="15.0" fill="rgb(252,217,51)" rx="2" ry="2" />
<text  x="1156.09" y="303.5" ></text>
</g>
<g >
<title>tick_nohz_handler (54,068,345 samples, 0.01%)</title><rect x="777.2" y="197" width="0.1" height="15.0" fill="rgb(248,200,48)" rx="2" ry="2" />
<text  x="780.16" y="207.5" ></text>
</g>
<g >
<title>clone3 (606,264,933,912 samples, 99.98%)</title><rect x="10.2" y="437" width="1179.8" height="15.0" fill="rgb(216,54,12)" rx="2" ry="2" />
<text  x="13.24" y="447.5" >clone3</text>
</g>
<g >
<title>zap_pte_range (67,470,306 samples, 0.01%)</title><rect x="10.0" y="149" width="0.1" height="15.0" fill="rgb(231,120,28)" rx="2" ry="2" />
<text  x="13.00" y="159.5" ></text>
</g>
<g >
<title>[libstdc++.so.6.0.33] (606,264,933,912 samples, 99.98%)</title><rect x="10.2" y="405" width="1179.8" height="15.0" fill="rgb(216,51,12)" rx="2" ry="2" />
<text  x="13.24" y="415.5" >[libstdc++.so.6.0.33]</text>
</g>
<g >
<title>handle_mm_fault (216,327,477 samples, 0.04%)</title><rect x="1151.6" y="229" width="0.4" height="15.0" fill="rgb(234,135,32)" rx="2" ry="2" />
<text  x="1154.58" y="239.5" ></text>
</g>
<g >
<title>_start (120,160,105 samples, 0.02%)</title><rect x="10.0" y="437" width="0.2" height="15.0" fill="rgb(245,185,44)" rx="2" ry="2" />
<text  x="13.00" y="447.5" ></text>
</g>
<g >
<title>main::{lambda (595,948,267,277 samples, 98.28%)</title><rect x="26.0" y="309" width="1159.7" height="15.0" fill="rgb(215,50,12)" rx="2" ry="2" />
<text  x="28.97" y="319.5" >main::{lambda</text>
</g>
<g >
<title>memcmp@plt (1,108,819,606 samples, 0.18%)</title><rect x="790.9" y="293" width="2.2" height="15.0" fill="rgb(251,214,51)" rx="2" ry="2" />
<text  x="793.92" y="303.5" ></text>
</g>
<g >
<title>__hrtimer_run_queues (53,066,208 samples, 0.01%)</title><rect x="777.4" y="229" width="0.1" height="15.0" fill="rgb(237,150,35)" rx="2" ry="2" />
<text  x="780.37" y="239.5" ></text>
</g>
<g >
<title>std::_Any_data::_M_access (234,314,874 samples, 0.04%)</title><rect x="304.7" y="229" width="0.4" height="15.0" fill="rgb(219,68,16)" rx="2" ry="2" />
<text  x="307.66" y="239.5" ></text>
</g>
<g >
<title>update_process_times (182,755,633 samples, 0.03%)</title><rect x="617.9" y="101" width="0.3" height="15.0" fill="rgb(250,209,50)" rx="2" ry="2" />
<text  x="620.86" y="111.5" ></text>
</g>
<g >
<title>std::enable_if&lt;is_invocable_r_v&lt;unsigned long, unsigned long  (2,016,521,095 samples, 0.33%)</title><rect x="664.1" y="261" width="3.9" height="15.0" fill="rgb(232,125,29)" rx="2" ry="2" />
<text  x="667.12" y="271.5" ></text>
</g>
<g >
<title>sugov_update_single_freq (54,084,439 samples, 0.01%)</title><rect x="618.1" y="37" width="0.1" height="15.0" fill="rgb(250,208,49)" rx="2" ry="2" />
<text  x="621.11" y="47.5" ></text>
</g>
<g >
<title>do_vmi_align_munmap (67,470,306 samples, 0.01%)</title><rect x="10.0" y="277" width="0.1" height="15.0" fill="rgb(211,29,7)" rx="2" ry="2" />
<text  x="13.00" y="287.5" ></text>
</g>
<g >
<title>asm_sysvec_apic_timer_interrupt (144,195,356 samples, 0.02%)</title><rect x="777.1" y="277" width="0.2" height="15.0" fill="rgb(232,127,30)" rx="2" ry="2" />
<text  x="780.06" y="287.5" ></text>
</g>
<g >
<title>__munmap (67,470,306 samples, 0.01%)</title><rect x="10.0" y="389" width="0.1" height="15.0" fill="rgb(211,29,7)" rx="2" ry="2" />
<text  x="13.00" y="399.5" ></text>
</g>
<g >
<title>asm_sysvec_apic_timer_interrupt (72,109,305 samples, 0.01%)</title><rect x="618.4" y="213" width="0.1" height="15.0" fill="rgb(232,127,30)" rx="2" ry="2" />
<text  x="621.36" y="223.5" ></text>
</g>
<g >
<title>sched_tick (53,066,208 samples, 0.01%)</title><rect x="777.4" y="181" width="0.1" height="15.0" fill="rgb(238,155,37)" rx="2" ry="2" />
<text  x="780.37" y="191.5" ></text>
</g>
<g >
<title>std::_Function_handler&lt;unsigned long  (206,566,436,759 samples, 34.07%)</title><rect x="262.2" y="261" width="401.9" height="15.0" fill="rgb(239,160,38)" rx="2" ry="2" />
<text  x="265.16" y="271.5" >std::_Function_handler&lt;unsigned long </text>
</g>
<g >
<title>handle_pte_fault (198,301,236 samples, 0.03%)</title><rect x="1151.6" y="197" width="0.4" height="15.0" fill="rgb(217,57,13)" rx="2" ry="2" />
<text  x="1154.62" y="207.5" ></text>
</g>
<g >
<title>error_entry (54,077,679 samples, 0.01%)</title><rect x="1153.0" y="277" width="0.1" height="15.0" fill="rgb(240,163,39)" rx="2" ry="2" />
<text  x="1155.98" y="287.5" ></text>
</g>
<g >
<title>zap_pmd_range.isra.0 (67,470,306 samples, 0.01%)</title><rect x="10.0" y="165" width="0.1" height="15.0" fill="rgb(244,180,43)" rx="2" ry="2" />
<text  x="13.00" y="175.5" ></text>
</g>
<g >
<title>unsigned long&amp;&amp; std::forward&lt;unsigned long&gt; (3,480,595,660 samples, 0.57%)</title><rect x="668.0" y="261" width="6.8" height="15.0" fill="rgb(231,121,29)" rx="2" ry="2" />
<text  x="671.05" y="271.5" ></text>
</g>
<g >
<title>update_process_times (53,066,208 samples, 0.01%)</title><rect x="777.4" y="197" width="0.1" height="15.0" fill="rgb(250,209,50)" rx="2" ry="2" />
<text  x="780.37" y="207.5" ></text>
</g>
<g >
<title>int const&amp; std::min&lt;int&gt; (3,059,973,600 samples, 0.50%)</title><rect x="20.0" y="309" width="6.0" height="15.0" fill="rgb(250,207,49)" rx="2" ry="2" />
<text  x="23.01" y="319.5" ></text>
</g>
<g >
<title>update_curr (54,078,912 samples, 0.01%)</title><rect x="1152.5" y="133" width="0.1" height="15.0" fill="rgb(227,105,25)" rx="2" ry="2" />
<text  x="1155.49" y="143.5" ></text>
</g>
<g >
<title>vms_clear_ptes (67,470,306 samples, 0.01%)</title><rect x="10.0" y="245" width="0.1" height="15.0" fill="rgb(206,4,1)" rx="2" ry="2" />
<text  x="13.00" y="255.5" ></text>
</g>
<g >
<title>parse (185,003,907,143 samples, 30.51%)</title><rect x="793.1" y="293" width="360.0" height="15.0" fill="rgb(231,122,29)" rx="2" ry="2" />
<text  x="796.08" y="303.5" >parse</text>
</g>
<g >
<title>std::function&lt;unsigned long  (236,363,022,632 samples, 38.98%)</title><rect x="214.9" y="277" width="459.9" height="15.0" fill="rgb(252,217,51)" rx="2" ry="2" />
<text  x="217.87" y="287.5" >std::function&lt;unsigned long </text>
</g>
<g >
<title>unsigned long  (3,606,784,672 samples, 0.59%)</title><rect x="641.5" y="245" width="7.0" height="15.0" fill="rgb(247,195,46)" rx="2" ry="2" />
<text  x="644.50" y="255.5" ></text>
</g>
<g >
<title>sysvec_apic_timer_interrupt (323,437,521 samples, 0.05%)</title><rect x="202.4" y="261" width="0.7" height="15.0" fill="rgb(220,69,16)" rx="2" ry="2" />
<text  x="205.44" y="271.5" ></text>
</g>
<g >
<title>asm_sysvec_apic_timer_interrupt (53,079,625 samples, 0.01%)</title><rect x="262.1" y="245" width="0.1" height="15.0" fill="rgb(232,127,30)" rx="2" ry="2" />
<text  x="265.05" y="255.5" ></text>
</g>
<g >
<title>update_process_times (251,345,047 samples, 0.04%)</title><rect x="1152.3" y="181" width="0.5" height="15.0" fill="rgb(250,209,50)" rx="2" ry="2" />
<text  x="1155.32" y="191.5" ></text>
</g>
<g >
<title>filemap_map_pages (162,246,340 samples, 0.03%)</title><rect x="1151.7" y="149" width="0.3" height="15.0" fill="rgb(229,112,27)" rx="2" ry="2" />
<text  x="1154.69" y="159.5" ></text>
</g>
<g >
<title>vms_complete_munmap_vmas (67,470,306 samples, 0.01%)</title><rect x="10.0" y="261" width="0.1" height="15.0" fill="rgb(216,52,12)" rx="2" ry="2" />
<text  x="13.00" y="271.5" ></text>
</g>
<g >
<title>hrtimer_interrupt (376,521,097 samples, 0.06%)</title><rect x="1152.2" y="229" width="0.7" height="15.0" fill="rgb(228,109,26)" rx="2" ry="2" />
<text  x="1155.18" y="239.5" ></text>
</g>
<g >
<title>std::_Function_base::_M_empty (4,436,417,373 samples, 0.73%)</title><rect x="253.5" y="261" width="8.7" height="15.0" fill="rgb(244,183,43)" rx="2" ry="2" />
<text  x="256.52" y="271.5" ></text>
</g>
<g >
<title>__sysvec_apic_timer_interrupt (54,083,283 samples, 0.01%)</title><rect x="618.4" y="181" width="0.1" height="15.0" fill="rgb(242,173,41)" rx="2" ry="2" />
<text  x="621.39" y="191.5" ></text>
</g>
<g >
<title>__libc_start_main@@GLIBC_2.34 (120,160,105 samples, 0.02%)</title><rect x="10.0" y="421" width="0.2" height="15.0" fill="rgb(229,113,27)" rx="2" ry="2" />
<text  x="13.00" y="431.5" ></text>
</g>
<g >
<title>__handle_mm_fault (216,327,477 samples, 0.04%)</title><rect x="1151.6" y="213" width="0.4" height="15.0" fill="rgb(207,9,2)" rx="2" ry="2" />
<text  x="1154.58" y="223.5" ></text>
</g>
<g >
<title>unsigned long  (4,746,746,874 samples, 0.78%)</title><rect x="368.4" y="229" width="9.2" height="15.0" fill="rgb(247,195,46)" rx="2" ry="2" />
<text  x="371.36" y="239.5" ></text>
</g>
<g >
<title>tick_nohz_handler (53,066,208 samples, 0.01%)</title><rect x="777.4" y="213" width="0.1" height="15.0" fill="rgb(248,200,48)" rx="2" ry="2" />
<text  x="780.37" y="223.5" ></text>
</g>
<g >
<title>hrtimer_interrupt (53,079,625 samples, 0.01%)</title><rect x="262.1" y="197" width="0.1" height="15.0" fill="rgb(228,109,26)" rx="2" ry="2" />
<text  x="265.05" y="207.5" ></text>
</g>
<g >
<title>__hrtimer_run_queues (200,777,743 samples, 0.03%)</title><rect x="617.8" y="133" width="0.4" height="15.0" fill="rgb(237,150,35)" rx="2" ry="2" />
<text  x="620.83" y="143.5" ></text>
</g>
<g >
<title>__hrtimer_run_queues (322,438,796 samples, 0.05%)</title><rect x="1152.2" y="213" width="0.6" height="15.0" fill="rgb(237,150,35)" rx="2" ry="2" />
<text  x="1155.18" y="223.5" ></text>
</g>
<g >
<title>__sysvec_apic_timer_interrupt (108,140,321 samples, 0.02%)</title><rect x="777.1" y="245" width="0.2" height="15.0" fill="rgb(242,173,41)" rx="2" ry="2" />
<text  x="780.09" y="255.5" ></text>
</g>
<g >
<title>next_uptodate_folio (90,134,994 samples, 0.01%)</title><rect x="1151.8" y="133" width="0.1" height="15.0" fill="rgb(209,20,4)" rx="2" ry="2" />
<text  x="1154.76" y="143.5" ></text>
</g>
<g >
<title>do_read_fault (162,246,340 samples, 0.03%)</title><rect x="1151.7" y="165" width="0.3" height="15.0" fill="rgb(223,84,20)" rx="2" ry="2" />
<text  x="1154.69" y="175.5" ></text>
</g>
<g >
<title>int const&amp; std::max&lt;int&gt; (3,737,780,168 samples, 0.62%)</title><rect x="777.5" y="293" width="7.3" height="15.0" fill="rgb(237,148,35)" rx="2" ry="2" />
<text  x="780.51" y="303.5" ></text>
</g>
<g >
<title>std::__invoke_result&lt;main::{lambda (606,264,933,912 samples, 99.98%)</title><rect x="10.2" y="341" width="1179.8" height="15.0" fill="rgb(253,222,53)" rx="2" ry="2" />
<text  x="13.24" y="351.5" >std::__invoke_result&lt;main::{lambda</text>
</g>
<g >
<title>__sysvec_apic_timer_interrupt (376,521,097 samples, 0.06%)</title><rect x="1152.2" y="245" width="0.7" height="15.0" fill="rgb(242,173,41)" rx="2" ry="2" />
<text  x="1155.18" y="255.5" ></text>
</g>
<g >
<title>hrtimer_interrupt (254,859,588 samples, 0.04%)</title><rect x="617.8" y="149" width="0.5" height="15.0" fill="rgb(228,109,26)" rx="2" ry="2" />
<text  x="620.83" y="159.5" ></text>
</g>
<g >
<title>sched_tick (179,242,742 samples, 0.03%)</title><rect x="202.7" y="165" width="0.3" height="15.0" fill="rgb(238,155,37)" rx="2" ry="2" />
<text  x="205.66" y="175.5" ></text>
</g>
<g >
<title>hrtimer_interrupt (54,083,283 samples, 0.01%)</title><rect x="618.4" y="165" width="0.1" height="15.0" fill="rgb(228,109,26)" rx="2" ry="2" />
<text  x="621.39" y="175.5" ></text>
</g>
<g >
<title>task_tick_fair (144,195,443 samples, 0.02%)</title><rect x="1152.4" y="149" width="0.3" height="15.0" fill="rgb(217,57,13)" rx="2" ry="2" />
<text  x="1155.42" y="159.5" ></text>
</g>
<g >
<title>hrtimer_interrupt (53,066,208 samples, 0.01%)</title><rect x="777.4" y="245" width="0.1" height="15.0" fill="rgb(228,109,26)" rx="2" ry="2" />
<text  x="780.37" y="255.5" ></text>
</g>
<g >
<title>task_tick_fair (90,123,261 samples, 0.01%)</title><rect x="202.8" y="149" width="0.2" height="15.0" fill="rgb(217,57,13)" rx="2" ry="2" />
<text  x="205.79" y="159.5" ></text>
</g>
<g >
<title>main (52,689,799 samples, 0.01%)</title><rect x="10.1" y="389" width="0.1" height="15.0" fill="rgb(243,179,42)" rx="2" ry="2" />
<text  x="13.14" y="399.5" ></text>
</g>
<g >
<title>HashTable&lt;WeatherStation&gt;::try_emplace (1,925,339,688 samples, 0.32%)</title><rect x="10.2" y="309" width="3.8" height="15.0" fill="rgb(221,74,17)" rx="2" ry="2" />
<text  x="13.24" y="319.5" ></text>
</g>
<g >
<title>__sysvec_apic_timer_interrupt (53,079,625 samples, 0.01%)</title><rect x="262.1" y="213" width="0.1" height="15.0" fill="rgb(242,173,41)" rx="2" ry="2" />
<text  x="265.05" y="223.5" ></text>
</g>
<g >
<title>update_process_times (54,068,345 samples, 0.01%)</title><rect x="777.2" y="181" width="0.1" height="15.0" fill="rgb(250,209,50)" rx="2" ry="2" />
<text  x="780.16" y="191.5" ></text>
</g>
<g >
<title>__sysvec_apic_timer_interrupt (53,066,208 samples, 0.01%)</title><rect x="777.4" y="261" width="0.1" height="15.0" fill="rgb(242,173,41)" rx="2" ry="2" />
<text  x="780.37" y="271.5" ></text>
</g>
<g >
<title>sysvec_apic_timer_interrupt (412,572,801 samples, 0.07%)</title><rect x="1152.2" y="261" width="0.8" height="15.0" fill="rgb(220,69,16)" rx="2" ry="2" />
<text  x="1155.18" y="271.5" ></text>
</g>
<g >
<title>std::_Function_base::_Base_manager&lt;unsigned long  (2,159,977,740 samples, 0.36%)</title><rect x="249.3" y="261" width="4.2" height="15.0" fill="rgb(229,111,26)" rx="2" ry="2" />
<text  x="252.32" y="271.5" ></text>
</g>
<g >
<title>hrtimer_interrupt (108,140,321 samples, 0.02%)</title><rect x="777.1" y="229" width="0.2" height="15.0" fill="rgb(228,109,26)" rx="2" ry="2" />
<text  x="780.09" y="239.5" ></text>
</g>
<g >
<title>all (606,387,606,579 samples, 100%)</title><rect x="10.0" y="469" width="1180.0" height="15.0" fill="rgb(213,39,9)" rx="2" ry="2" />
<text  x="13.00" y="479.5" ></text>
</g>
<g >
<title>sched_tick (251,345,047 samples, 0.04%)</title><rect x="1152.3" y="165" width="0.5" height="15.0" fill="rgb(238,155,37)" rx="2" ry="2" />
<text  x="1155.32" y="175.5" ></text>
</g>
<g >
<title>std::_Function_handler&lt;unsigned long  (2,283,991,352 samples, 0.38%)</title><rect x="210.4" y="277" width="4.5" height="15.0" fill="rgb(239,160,38)" rx="2" ry="2" />
<text  x="213.43" y="287.5" ></text>
</g>
<g >
<title>void std::__invoke_impl&lt;void, main::{lambda (606,264,933,912 samples, 99.98%)</title><rect x="10.2" y="325" width="1179.8" height="15.0" fill="rgb(229,112,26)" rx="2" ry="2" />
<text  x="13.24" y="335.5" >void std::__invoke_impl&lt;void, main::{lambda</text>
</g>
<g >
<title>unmap_page_range (67,470,306 samples, 0.01%)</title><rect x="10.0" y="197" width="0.1" height="15.0" fill="rgb(206,5,1)" rx="2" ry="2" />
<text  x="13.00" y="207.5" ></text>
</g>
<g >
<title>do_syscall_64 (67,470,306 samples, 0.01%)</title><rect x="10.0" y="357" width="0.1" height="15.0" fill="rgb(209,20,4)" rx="2" ry="2" />
<text  x="13.00" y="367.5" ></text>
</g>
<g >
<title>std::vector&lt;unsigned long, std::allocator&lt;unsigned long&gt; &gt;::operator[] (6,196,703,620 samples, 1.02%)</title><rect x="724.6" y="277" width="12.1" height="15.0" fill="rgb(233,133,31)" rx="2" ry="2" />
<text  x="727.64" y="287.5" ></text>
</g>
<g >
<title>char const*&amp;&amp; std::forward&lt;char const*&gt; (6,801,899,341 samples, 1.12%)</title><rect x="355.1" y="229" width="13.3" height="15.0" fill="rgb(226,98,23)" rx="2" ry="2" />
<text  x="358.12" y="239.5" ></text>
</g>
<g >
<title>std::_Any_data::_M_access (3,668,578,396 samples, 0.60%)</title><rect x="319.9" y="213" width="7.1" height="15.0" fill="rgb(219,68,16)" rx="2" ry="2" />
<text  x="322.90" y="223.5" ></text>
</g>
<g >
<title>update_process_times (251,347,620 samples, 0.04%)</title><rect x="202.6" y="181" width="0.5" height="15.0" fill="rgb(250,209,50)" rx="2" ry="2" />
<text  x="205.58" y="191.5" ></text>
</g>
<g >
<title>parse (2,234,970,854 samples, 0.37%)</title><rect x="1185.7" y="309" width="4.3" height="15.0" fill="rgb(231,122,29)" rx="2" ry="2" />
<text  x="1188.65" y="319.5" ></text>
</g>
<g >
<title>__vm_munmap (67,470,306 samples, 0.01%)</title><rect x="10.0" y="309" width="0.1" height="15.0" fill="rgb(231,121,28)" rx="2" ry="2" />
<text  x="13.00" y="319.5" ></text>
</g>
<g >
<title>tick_nohz_handler (54,083,283 samples, 0.01%)</title><rect x="618.4" y="133" width="0.1" height="15.0" fill="rgb(248,200,48)" rx="2" ry="2" />
<text  x="621.39" y="143.5" ></text>
</g>
<g >
<title>unmap_vmas (67,470,306 samples, 0.01%)</title><rect x="10.0" y="229" width="0.1" height="15.0" fill="rgb(243,176,42)" rx="2" ry="2" />
<text  x="13.00" y="239.5" ></text>
</g>
<g >
<title>sysvec_apic_timer_interrupt (272,883,071 samples, 0.05%)</title><rect x="617.8" y="181" width="0.6" height="15.0" fill="rgb(220,69,16)" rx="2" ry="2" />
<text  x="620.83" y="191.5" ></text>
</g>
<g >
<title>unsigned long std::__invoke_impl&lt;unsigned long, unsigned long  (132,346,080,970 samples, 21.83%)</title><rect x="377.6" y="229" width="257.5" height="15.0" fill="rgb(249,204,48)" rx="2" ry="2" />
<text  x="380.59" y="239.5" >unsigned long std::__invoke_impl&lt;u..</text>
</g>
<g >
<title>unsigned long&amp;&amp; std::forward&lt;unsigned long&gt; (2,573,084,159 samples, 0.42%)</title><rect x="630.1" y="213" width="5.0" height="15.0" fill="rgb(231,121,29)" rx="2" ry="2" />
<text  x="633.13" y="223.5" ></text>
</g>
<g >
<title>std::vector&lt;unsigned long, std::allocator&lt;unsigned long&gt; &gt;::operator[] (5,018,556,667 samples, 0.83%)</title><rect x="1175.9" y="293" width="9.8" height="15.0" fill="rgb(233,133,31)" rx="2" ry="2" />
<text  x="1178.88" y="303.5" ></text>
</g>
<g >
<title>__irqentry_text_end (54,084,822 samples, 0.01%)</title><rect x="617.7" y="197" width="0.1" height="15.0" fill="rgb(248,199,47)" rx="2" ry="2" />
<text  x="620.72" y="207.5" ></text>
</g>
<g >
<title>sysvec_apic_timer_interrupt (126,168,290 samples, 0.02%)</title><rect x="777.1" y="261" width="0.2" height="15.0" fill="rgb(220,69,16)" rx="2" ry="2" />
<text  x="780.09" y="271.5" ></text>
</g>
<g >
<title>__memcmp_avx2_movbe_rtm (18,560,299,444 samples, 3.06%)</title><rect x="741.2" y="293" width="36.1" height="15.0" fill="rgb(221,75,17)" rx="2" ry="2" />
<text  x="744.22" y="303.5" >__m..</text>
</g>
<g >
<title>exc_page_fault (234,354,606 samples, 0.04%)</title><rect x="1151.6" y="261" width="0.4" height="15.0" fill="rgb(212,35,8)" rx="2" ry="2" />
<text  x="1154.58" y="271.5" ></text>
</g>
<g >
<title>std::_Function_base::_M_empty (1,078,424,545 samples, 0.18%)</title><rect x="208.3" y="277" width="2.1" height="15.0" fill="rgb(244,183,43)" rx="2" ry="2" />
<text  x="211.33" y="287.5" ></text>
</g>
<g >
<title>__x64_sys_munmap (67,470,306 samples, 0.01%)</title><rect x="10.0" y="325" width="0.1" height="15.0" fill="rgb(206,7,1)" rx="2" ry="2" />
<text  x="13.00" y="335.5" ></text>
</g>
<g >
<title>unsigned long&amp;&amp; std::forward&lt;unsigned long&gt; (4,130,952,446 samples, 0.68%)</title><rect x="656.1" y="245" width="8.0" height="15.0" fill="rgb(231,121,29)" rx="2" ry="2" />
<text  x="659.08" y="255.5" ></text>
</g>
<g >
<title>std::thread::_State_impl&lt;std::thread::_Invoker&lt;std::tuple&lt;main::{lambda (606,264,933,912 samples, 99.98%)</title><rect x="10.2" y="389" width="1179.8" height="15.0" fill="rgb(247,195,46)" rx="2" ry="2" />
<text  x="13.24" y="399.5" >std::thread::_State_impl&lt;std::thread::_Invoker&lt;std::tuple&lt;main::{lambda</text>
</g>
<g >
<title>std::vector&lt;std::pair&lt;char const*, WeatherStation&gt;, std::allocator&lt;std::pair&lt;char const*, WeatherStation&gt; &gt; &gt;::operator[] (25,603,234,908 samples, 4.22%)</title><rect x="674.8" y="277" width="49.8" height="15.0" fill="rgb(222,80,19)" rx="2" ry="2" />
<text  x="677.82" y="287.5" >std::..</text>
</g>
<g >
<title>sysvec_apic_timer_interrupt (71,095,140 samples, 0.01%)</title><rect x="777.4" y="277" width="0.1" height="15.0" fill="rgb(220,69,16)" rx="2" ry="2" />
<text  x="780.37" y="287.5" ></text>
</g>
<g >
<title>do_vmi_munmap (67,470,306 samples, 0.01%)</title><rect x="10.0" y="293" width="0.1" height="15.0" fill="rgb(253,223,53)" rx="2" ry="2" />
<text  x="13.00" y="303.5" ></text>
</g>
<g >
<title>asm_exc_page_fault (234,354,606 samples, 0.04%)</title><rect x="1151.6" y="277" width="0.4" height="15.0" fill="rgb(225,93,22)" rx="2" ry="2" />
<text  x="1154.58" y="287.5" ></text>
</g>
<g >
<title>APHash (1,242,612,612 samples, 0.20%)</title><rect x="352.7" y="229" width="2.4" height="15.0" fill="rgb(220,70,16)" rx="2" ry="2" />
<text  x="355.67" y="239.5" ></text>
</g>
<g >
<title>__hrtimer_run_queues (54,083,283 samples, 0.01%)</title><rect x="618.4" y="149" width="0.1" height="15.0" fill="rgb(237,150,35)" rx="2" ry="2" />
<text  x="621.39" y="159.5" ></text>
</g>
<g >
<title>void std::thread::_Invoker&lt;std::tuple&lt;main::{lambda (606,264,933,912 samples, 99.98%)</title><rect x="10.2" y="357" width="1179.8" height="15.0" fill="rgb(239,157,37)" rx="2" ry="2" />
<text  x="13.24" y="367.5" >void std::thread::_Invoker&lt;std::tuple&lt;main::{lambda</text>
</g>
<g >
<title>do_fault (162,246,340 samples, 0.03%)</title><rect x="1151.7" y="181" width="0.3" height="15.0" fill="rgb(248,200,47)" rx="2" ry="2" />
<text  x="1154.69" y="191.5" ></text>
</g>
<g >
<title>__libc_start_call_main (120,160,105 samples, 0.02%)</title><rect x="10.0" y="405" width="0.2" height="15.0" fill="rgb(210,26,6)" rx="2" ry="2" />
<text  x="13.00" y="415.5" ></text>
</g>
<g >
<title>char const*&amp;&amp; std::forward&lt;char const*&gt; (2,867,124,687 samples, 0.47%)</title><rect x="618.5" y="213" width="5.6" height="15.0" fill="rgb(226,98,23)" rx="2" ry="2" />
<text  x="621.50" y="223.5" ></text>
</g>
</g>
</svg>
